<?xml version="1.0" encoding="utf-8" ?>
<svg xmlns="http://www.w3.org/2000/svg" xmlns:xlink="http://www.w3.org/1999/xlink" width="1440" height="80" viewBox="0 0 1440 80">
	<path d="M1440 80L0 80L0 79L1440 79L1440 80Z" fill-rule="nonzero" transform="matrix(1 0 0 1 0 0)" fill="rgb(31, 41, 55)"/>
	<path d="M7.70508 30L1.52344 30L1.52344 12.5449L7.75781 12.5449Q10.3887 12.5449 12.2871 13.5879Q14.1914 14.6309 15.2168 16.5879Q16.248 18.5391 16.248 21.2578Q16.248 23.9883 15.2168 25.9453Q14.1914 27.9023 12.2754 28.9512Q10.3652 30 7.70508 30ZM5.20898 26.8359L7.54688 26.8359Q9.19336 26.8359 10.3125 26.25Q11.4316 25.6641 12 24.4336Q12.5684 23.2031 12.5684 21.2578Q12.5684 19.3184 11.9941 18.0938Q11.4258 16.8691 10.3125 16.2891Q9.19922 15.709 7.55859 15.709L5.20898 15.709L5.20898 26.8359Z" fill-rule="nonzero" transform="matrix(1 0 0 1 80 18)" fill="rgb(255, 255, 255)"/>
	<path d="M18.978 30L18.978 12.5449L25.9565 12.5449Q27.8843 12.5449 29.1733 13.1191Q30.4624 13.6934 31.1069 14.7012Q31.7573 15.709 31.7573 17.0156Q31.7573 18.0469 31.3472 18.8145Q30.937 19.582 30.2222 20.0742Q29.5132 20.5664 28.605 20.7656L28.605 20.9414Q29.5952 20.9824 30.4741 21.5039Q31.353 22.0254 31.8979 22.957Q32.4429 23.8828 32.4429 25.1777Q32.4429 26.5664 31.7573 27.6562Q31.0718 28.7402 29.73 29.373Q28.394 30 26.4253 30L18.978 30ZM22.6636 26.9766L25.6694 26.9766Q27.2163 26.9766 27.9194 26.3906Q28.6284 25.7988 28.6284 24.8086Q28.6284 24.0879 28.2769 23.5312Q27.9312 22.9746 27.2866 22.6582Q26.6421 22.3418 25.7515 22.3418L22.6636 22.3418L22.6636 26.9766ZM22.6636 19.8457L25.3999 19.8457Q26.1558 19.8457 26.7476 19.582Q27.3452 19.3125 27.6851 18.8203Q28.0308 18.3223 28.0308 17.6309Q28.0308 16.6875 27.3628 16.1074Q26.6948 15.5273 25.4644 15.5273L22.6636 15.5273L22.6636 19.8457Z" fill-rule="nonzero" transform="matrix(1 0 0 1 80 18)" fill="rgb(255, 255, 255)"/>
	<path d="M40.6807 30.252Q38.6943 30.252 37.2471 29.4082Q35.8057 28.5586 35.0205 27.041Q34.2354 25.5176 34.2354 23.502Q34.2354 21.4746 35.0205 19.957Q35.8057 18.4336 37.2471 17.5898Q38.6943 16.7402 40.6807 16.7402Q42.667 16.7402 44.1084 17.5898Q45.5557 18.4336 46.335 19.957Q47.1201 21.4746 47.1201 23.502Q47.1201 25.5176 46.335 27.041Q45.5557 28.5586 44.1084 29.4082Q42.667 30.252 40.6807 30.252ZM40.6982 27.4453Q41.5947 27.4453 42.2041 26.9297Q42.8135 26.4082 43.124 25.5176Q43.4346 24.6211 43.4346 23.4844Q43.4346 22.3359 43.124 21.4453Q42.8135 20.5488 42.2041 20.0273Q41.5947 19.5059 40.6982 19.5059Q39.7842 19.5059 39.1631 20.0273Q38.5479 20.5488 38.2373 21.4453Q37.9268 22.3359 37.9268 23.4844Q37.9268 24.6211 38.2373 25.5176Q38.5479 26.4082 39.1631 26.9297Q39.7842 27.4453 40.6982 27.4453Z" fill-rule="nonzero" transform="matrix(1 0 0 1 80 18)" fill="rgb(255, 255, 255)"/>
	<path d="M55.408 30.252Q53.4216 30.252 51.9744 29.4082Q50.533 28.5586 49.7478 27.041Q48.9627 25.5176 48.9627 23.502Q48.9627 21.4746 49.7478 19.957Q50.533 18.4336 51.9744 17.5898Q53.4216 16.7402 55.408 16.7402Q57.3943 16.7402 58.8357 17.5898Q60.283 18.4336 61.0623 19.957Q61.8474 21.4746 61.8474 23.502Q61.8474 25.5176 61.0623 27.041Q60.283 28.5586 58.8357 29.4082Q57.3943 30.252 55.408 30.252ZM55.4256 27.4453Q56.322 27.4453 56.9314 26.9297Q57.5408 26.4082 57.8513 25.5176Q58.1619 24.6211 58.1619 23.4844Q58.1619 22.3359 57.8513 21.4453Q57.5408 20.5488 56.9314 20.0273Q56.322 19.5059 55.4256 19.5059Q54.5115 19.5059 53.8904 20.0273Q53.2752 20.5488 52.9646 21.4453Q52.6541 22.3359 52.6541 23.4844Q52.6541 24.6211 52.9646 25.5176Q53.2752 26.4082 53.8904 26.9297Q54.5115 27.4453 55.4256 27.4453Z" fill-rule="nonzero" transform="matrix(1 0 0 1 80 18)" fill="rgb(255, 255, 255)"/>
	<path d="M67.5103 26.2266L67.5161 21.8789L68.0493 21.8789L72.2388 16.9102L76.4048 16.9102L70.774 23.4902L69.9068 23.4902L67.5103 26.2266ZM64.2232 30L64.2232 12.5449L67.8501 12.5449L67.8501 30L64.2232 30ZM72.397 30L68.5533 24.2988L70.9673 21.7383L76.6509 30L72.397 30Z" fill-rule="nonzero" transform="matrix(1 0 0 1 80 18)" fill="rgb(255, 255, 255)"/>
	<path d="M78.2538 12.5449L82.8006 12.5449L87.6053 24.2754L87.8104 24.2754L92.6151 12.5449L97.162 12.5449L97.162 30L93.5936 30L93.5936 18.6387L93.4413 18.6387L88.9295 29.918L86.4862 29.918L81.9745 18.5977L81.8221 18.5977L81.8221 30L78.2538 30L78.2538 12.5449Z" fill-rule="nonzero" transform="matrix(1 0 0 1 80 18)" fill="rgb(255, 255, 255)"/>
	<path d="M102.376 34.9102Q101.685 34.9102 101.081 34.7988Q100.484 34.6934 100.091 34.5352L100.906 31.8223Q101.55 32.0215 102.06 32.0332Q102.576 32.0508 102.956 31.793Q103.343 31.541 103.583 30.9258L103.794 30.375L99.0951 16.9102L102.91 16.9102L105.628 26.5254L105.763 26.5254L108.494 16.9102L112.337 16.9102L107.251 31.418Q106.882 32.4727 106.255 33.2578Q105.628 34.0488 104.673 34.4766Q103.724 34.9102 102.376 34.9102Z" fill-rule="nonzero" transform="matrix(1 0 0 1 80 18)" fill="rgb(255, 255, 255)"/>
	<path d="M123.734 17.5664Q123.628 16.5352 122.849 15.9609Q122.076 15.3867 120.751 15.3867Q119.849 15.3867 119.222 15.6445Q118.601 15.8965 118.273 16.3418Q117.951 16.7812 117.945 17.3438Q117.933 17.8125 118.144 18.1641Q118.361 18.5156 118.742 18.7676Q119.128 19.0195 119.632 19.2012Q120.136 19.377 120.704 19.5059L122.275 19.8809Q123.417 20.1387 124.367 20.5664Q125.322 20.9941 126.025 21.6152Q126.728 22.2363 127.115 23.0801Q127.501 23.9238 127.507 25.0137Q127.501 26.6133 126.693 27.791Q125.89 28.9629 124.378 29.6074Q122.867 30.2461 120.734 30.2461Q118.619 30.2461 117.054 29.6016Q115.49 28.9512 114.617 27.6797Q113.749 26.4023 113.703 24.5156L117.277 24.5156Q117.335 25.3945 117.781 25.9805Q118.232 26.5664 118.982 26.8594Q119.732 27.1523 120.693 27.1523Q121.63 27.1523 122.322 26.8828Q123.013 26.6074 123.394 26.127Q123.781 25.6406 123.787 25.002Q123.781 24.416 123.435 24.0176Q123.089 23.6133 122.427 23.332Q121.771 23.0508 120.822 22.8223L118.917 22.3477Q116.708 21.8145 115.431 20.6719Q114.154 19.5234 114.16 17.5898Q114.154 16.0078 115.009 14.8242Q115.87 13.6348 117.37 12.9727Q118.87 12.3047 120.781 12.3047Q122.72 12.3047 124.173 12.9727Q125.626 13.6348 126.435 14.8242Q127.249 16.0078 127.273 17.5664L123.734 17.5664Z" fill-rule="nonzero" transform="matrix(1 0 0 1 80 18)" fill="rgb(255, 255, 255)"/>
	<path d="M133.543 22.4297L133.543 30L129.917 30L129.917 12.5449L133.438 12.5449L133.438 19.2188L133.59 19.2188Q134.042 18.0645 135.026 17.4023Q136.016 16.7402 137.504 16.7402Q138.876 16.7402 139.889 17.332Q140.909 17.9238 141.471 19.0254Q142.04 20.127 142.034 21.6621L142.034 30L138.407 30L138.407 22.3066Q138.407 21.0996 137.792 20.4258Q137.176 19.752 136.063 19.752Q135.331 19.752 134.756 20.0742Q134.188 20.3906 133.866 20.9883Q133.549 21.5859 133.543 22.4297Z" fill-rule="nonzero" transform="matrix(1 0 0 1 80 18)" fill="rgb(255, 255, 255)"/>
	<path d="M150.812 30.252Q148.825 30.252 147.378 29.4082Q145.937 28.5586 145.151 27.041Q144.366 25.5176 144.366 23.502Q144.366 21.4746 145.151 19.957Q145.937 18.4336 147.378 17.5898Q148.825 16.7402 150.812 16.7402Q152.798 16.7402 154.239 17.5898Q155.687 18.4336 156.466 19.957Q157.251 21.4746 157.251 23.502Q157.251 25.5176 156.466 27.041Q155.687 28.5586 154.239 29.4082Q152.798 30.252 150.812 30.252ZM150.829 27.4453Q151.726 27.4453 152.335 26.9297Q152.944 26.4082 153.255 25.5176Q153.566 24.6211 153.566 23.4844Q153.566 22.3359 153.255 21.4453Q152.944 20.5488 152.335 20.0273Q151.726 19.5059 150.829 19.5059Q149.915 19.5059 149.294 20.0273Q148.679 20.5488 148.368 21.4453Q148.058 22.3359 148.058 23.4844Q148.058 24.6211 148.368 25.5176Q148.679 26.4082 149.294 26.9297Q149.915 27.4453 150.829 27.4453Z" fill-rule="nonzero" transform="matrix(1 0 0 1 80 18)" fill="rgb(255, 255, 255)"/>
	<path d="M161.884 30L158.322 16.9102L161.99 16.9102L164.023 25.7051L164.14 25.7051L166.261 16.9102L169.859 16.9102L172.009 25.6523L172.127 25.6523L174.113 16.9102L177.781 16.9102L174.224 30L170.386 30L168.136 21.7617L167.972 21.7617L165.722 30L161.884 30Z" fill-rule="nonzero" transform="matrix(1 0 0 1 80 18)" fill="rgb(255, 255, 255)"/>
	<defs>
		<clipPath id="clipPath3257492439">
			<path d="M0 0L20 0L20 20L0 20L0 0Z" fill-rule="nonzero" transform="matrix(1 0 0 1 1215.02 29.5)"/>
		</clipPath>
	</defs>
	<g clip-path="url(#clipPath3257492439)">
		<defs>
			<clipPath id="clipPath6710527296">
				<path d="M0 0L20 0L20 20L0 20L0 0Z" fill-rule="nonzero" transform="matrix(1 0 0 1 1215.02 29.5)"/>
			</clipPath>
		</defs>
		<g clip-path="url(#clipPath6710527296)">
			<path d="M5.625 0.625Q4.6022 0.625 3.66943 1.0006Q2.77092 1.36241 2.07878 2.021Q1.38997 2.6764 1.01326 3.52336Q0.625 4.39629 0.625 5.35156Q0.625 7.39237 2.59388 10.9477Q3.85923 13.2326 5.6293 15.6239Q5.62957 15.6242 5.625 15.6242Q5.62043 15.6242 5.61773 15.6279Q7.39085 13.2335 8.65614 10.949Q10.625 7.39412 10.625 5.35156Q10.625 4.39629 10.2367 3.52336Q9.86003 2.6764 9.17122 2.021Q8.47908 1.36241 7.58057 1.00061Q6.6478 0.625 5.625 0.625ZM5.625 -0.625Q6.89002 -0.625 8.04748 -0.158918Q9.16764 0.292141 10.0329 1.11543Q10.9014 1.9418 11.3789 3.01537Q11.875 4.13084 11.875 5.35156Q11.875 7.71716 9.74962 11.5546Q8.44442 13.9112 6.62836 16.3635Q6.25664 16.8742 5.625 16.8742Q4.99336 16.8742 4.62461 16.3676Q2.80557 13.9102 1.50036 11.5533Q-0.625 7.71537 -0.625 5.35156Q-0.625 4.13084 -0.128861 3.01537Q0.348645 1.9418 1.21712 1.11543Q2.08237 0.29214 3.20252 -0.158918Q4.35998 -0.625 5.625 -0.625Z" fill-rule="nonzero" transform="matrix(1 0 0 1 1219.39 31.375)" fill="rgb(255, 255, 255)"/>
			<path d="M1.875 -0.625Q2.38321 -0.625 2.8483 -0.428281Q3.29706 -0.238473 3.64277 0.107233Q3.98847 0.452939 4.17828 0.901695Q4.375 1.36679 4.375 1.875Q4.375 2.38321 4.17828 2.8483Q3.98847 3.29706 3.64277 3.64277Q3.29706 3.98847 2.8483 4.17828Q2.38321 4.375 1.875 4.375Q1.36679 4.375 0.901695 4.17828Q0.452939 3.98847 0.107233 3.64277Q-0.238473 3.29706 -0.428281 2.8483Q-0.625 2.38321 -0.625 1.875Q-0.625 1.36679 -0.428281 0.901695Q-0.238473 0.452939 0.107233 0.107233Q0.452939 -0.238473 0.901695 -0.428281Q1.36679 -0.625 1.875 -0.625ZM1.875 0.625Q1.35723 0.625 0.991117 0.991117Q0.625 1.35723 0.625 1.875Q0.625 2.39277 0.991117 2.75888Q1.35723 3.125 1.875 3.125Q2.39277 3.125 2.75888 2.75888Q3.125 2.39277 3.125 1.875Q3.125 1.35723 2.75888 0.991117Q2.39277 0.625 1.875 0.625Z" fill-rule="nonzero" transform="matrix(1 0 0 1 1223.14 35.125)" fill="rgb(255, 255, 255)"/>
		</g>
	</g>
	<path d="M10.6719 10.3633L10.6719 22L9.05469 22L3.14062 13.4688L3.03516 13.4688L3.03516 22L1.27734 22L1.27734 10.3633L2.90625 10.3633L8.82422 18.9102L8.93359 18.9102L8.93359 10.3633L10.6719 10.3633Z" fill-rule="nonzero" transform="matrix(1 0 0 1 1243.02 23.5)" fill="rgb(255, 255, 255)"/>
	<path d="M16.855 22.1758Q15.5659 22.1758 14.6323 21.6211Q13.7026 21.0664 13.1987 20.0586Q12.6987 19.0508 12.6987 17.6953Q12.6987 16.3516 13.1987 15.332Q13.7026 14.3086 14.6089 13.7344Q15.5151 13.1602 16.73 13.1602Q17.4722 13.1602 18.1636 13.4023Q18.8589 13.6445 19.4058 14.168Q19.9565 14.6914 20.2769 15.5273Q20.5972 16.3594 20.5972 17.5469L20.5972 18.1445L13.6597 18.1445L13.6597 16.8711L18.9292 16.8711Q18.9292 16.207 18.6558 15.6875Q18.3862 15.1641 17.894 14.8633Q17.4058 14.5625 16.7456 14.5625Q16.0269 14.5625 15.4956 14.9141Q14.9683 15.2617 14.6792 15.8242Q14.3901 16.3828 14.3901 17.0352L14.3901 18.0273Q14.3901 18.9023 14.6987 19.5156Q15.0112 20.1289 15.5659 20.4531Q16.1245 20.7734 16.8667 20.7734Q17.355 20.7734 17.7495 20.6367Q18.1479 20.4961 18.437 20.2188Q18.7261 19.9414 18.8823 19.5273L20.4878 19.8164Q20.2964 20.5273 19.8003 21.0586Q19.3042 21.5898 18.5542 21.8828Q17.8042 22.1758 16.855 22.1758Z" fill-rule="nonzero" transform="matrix(1 0 0 1 1243.02 23.5)" fill="rgb(255, 255, 255)"/>
	<path d="M24.3549 22L21.7924 13.2734L23.5463 13.2734L25.2572 19.6836L25.3431 19.6836L27.0541 13.2734L28.8119 13.2734L30.515 19.6562L30.601 19.6562L32.3002 13.2734L34.0541 13.2734L31.4916 22L29.7611 22L27.9877 15.6992L27.8588 15.6992L26.0892 22L24.3549 22Z" fill-rule="nonzero" transform="matrix(1 0 0 1 1243.02 23.5)" fill="rgb(255, 255, 255)"/>
	<path d="M39.1437 10.3633L41.1398 10.3633L44.175 15.6562L44.3 15.6562L47.339 10.3633L49.3351 10.3633L45.1164 17.4336L45.1164 22L43.3625 22L43.3625 17.4336L39.1437 10.3633Z" fill-rule="nonzero" transform="matrix(1 0 0 1 1243.02 23.5)" fill="rgb(255, 255, 255)"/>
	<path d="M53.109 22.1758Q51.8824 22.1758 50.9684 21.6133Q50.0543 21.0508 49.5465 20.0391Q49.0426 19.0273 49.0426 17.6758Q49.0426 16.3164 49.5465 15.3008Q50.0543 14.2852 50.9684 13.7227Q51.8824 13.1602 53.109 13.1602Q54.3395 13.1602 55.2535 13.7227Q56.1676 14.2852 56.6715 15.3008Q57.1793 16.3164 57.1793 17.6758Q57.1793 19.0273 56.6715 20.0391Q56.1676 21.0508 55.2535 21.6133Q54.3395 22.1758 53.109 22.1758ZM53.1168 20.75Q53.9137 20.75 54.4332 20.3281Q54.9566 19.9062 55.2106 19.207Q55.4645 18.5078 55.4645 17.6719Q55.4645 16.8359 55.2106 16.1328Q54.9566 15.4297 54.4332 15.0039Q53.9137 14.5781 53.1168 14.5781Q52.3121 14.5781 51.7887 15.0039Q51.2652 15.4297 51.0113 16.1328Q50.7574 16.8359 50.7574 17.6719Q50.7574 18.5078 51.0113 19.207Q51.2652 19.9062 51.7887 20.3281Q52.3121 20.75 53.1168 20.75Z" fill-rule="nonzero" transform="matrix(1 0 0 1 1243.02 23.5)" fill="rgb(255, 255, 255)"/>
	<path d="M59.0695 22L59.0695 13.2734L60.714 13.2734L60.714 14.6602L60.8078 14.6602Q61.046 13.957 61.6476 13.5508Q62.2531 13.1406 63.0187 13.1406Q63.1788 13.1406 63.3937 13.1523Q63.6124 13.1641 63.7413 13.1836L63.7413 14.8086Q63.6398 14.7812 63.3781 14.7422Q63.1203 14.7031 62.8546 14.7031Q62.257 14.7031 61.7843 14.957Q61.3117 15.2109 61.0382 15.6562Q60.7687 16.1016 60.7687 16.6719L60.7687 22L59.0695 22Z" fill-rule="nonzero" transform="matrix(1 0 0 1 1243.02 23.5)" fill="rgb(255, 255, 255)"/>
	<path d="M66.7796 19.0391L66.7679 16.9688L67.0687 16.9688L70.5453 13.2734L72.5765 13.2734L68.6117 17.4766L68.346 17.4766L66.7796 19.0391ZM65.2171 22L65.2171 10.3633L66.9164 10.3633L66.9164 22L65.2171 22ZM70.7328 22L67.6039 17.8555L68.7757 16.6641L72.8148 22L70.7328 22Z" fill-rule="nonzero" transform="matrix(1 0 0 1 1243.02 23.5)" fill="rgb(255, 255, 255)"/>
	<defs>
		<clipPath id="clipPath5404957665">
			<path d="M0 0L20 0L20 20L0 20L0 0Z" fill-rule="nonzero" transform="matrix(1 0 0 1 1340 29.5)"/>
		</clipPath>
	</defs>
	<g clip-path="url(#clipPath5404957665)">
		<defs>
			<clipPath id="clipPath6858995936">
				<path d="M0 0L20 0L20 20L0 20L0 0Z" fill-rule="nonzero" transform="matrix(1 0 0 1 1340 29.5)"/>
			</clipPath>
		</defs>
		<g clip-path="url(#clipPath6858995936)"/>
	</g>
</svg>
